<svg width="635" fill="none" xmlns="http://www.w3.org/2000/svg">
<g opacity="0.8">
<path d="M1 91.3621L5.38692 87.5764C9.77383 83.7907 18.5477 76.2194 27.3215 84.5111C36.0953 92.8028 44.8692 116.958 53.643 117.127C62.4168 117.296 71.1907 93.4802 79.9645 83.9151C88.7383 74.3499 97.5122 79.0358 106.286 90.6242C115.06 102.213 123.834 120.704 132.607 128.375C141.381 136.046 150.155 132.897 158.929 143.367C167.703 153.838 176.477 177.927 185.25 178.653C194.024 179.379 202.798 156.742 211.572 145.528C220.346 134.313 229.12 134.52 237.893 144.067C246.667 153.614 255.441 172.5 264.215 153.071C272.989 133.643 281.763 75.8987 290.536 65.5303C299.31 55.162 308.084 92.1691 316.858 103.745C325.632 115.32 334.406 101.464 343.179 94.3623C351.953 87.2602 360.727 86.9117 369.501 87.1917C378.275 87.4717 387.049 88.3801 395.822 101.09C404.596 113.799 413.37 138.31 422.144 149.964C430.918 161.617 439.692 160.413 448.465 133.249C457.239 106.084 466.013 52.9592 474.787 25.0288C483.561 -2.90159 492.335 -5.63752 501.108 12.4383C509.882 30.5142 518.656 69.4018 527.43 99.148C536.204 128.894 544.978 149.499 553.751 137.509C562.525 125.519 571.299 80.9335 580.073 56.5382C588.847 32.1428 597.621 27.9373 606.394 35.8104C615.168 43.6836 623.942 63.6354 628.329 73.6114L632.716 83.5873" stroke="#6865E7" stroke-width="2"/>
<path opacity="0.15" d="M5.38692 87.5764L1 91.3621V271H632.716V83.5873L628.329 73.6113C623.942 63.6354 615.168 43.6836 606.394 35.8104C597.621 27.9373 588.847 32.1428 580.073 56.5381C571.299 80.9334 562.525 125.519 553.751 137.509C544.978 149.499 536.204 128.894 527.43 99.148C518.656 69.4018 509.882 30.5142 501.108 12.4383C492.335 -5.63751 483.561 -2.90159 474.787 25.0288C466.013 52.9592 457.239 106.084 448.465 133.249C439.692 160.413 430.918 161.617 422.144 149.964C413.37 138.31 404.596 113.799 395.822 101.09C387.049 88.3801 378.275 87.4717 369.501 87.1917C360.727 86.9117 351.953 87.2601 343.179 94.3623C334.406 101.464 325.632 115.32 316.858 103.745C308.084 92.169 299.31 55.162 290.536 65.5303C281.763 75.8987 272.989 133.642 264.215 153.071C255.441 172.5 246.667 153.614 237.893 144.067C229.12 134.52 220.346 134.313 211.572 145.528C202.798 156.742 194.024 179.379 185.25 178.653C176.477 177.926 167.703 153.838 158.929 143.367C150.155 132.897 141.381 136.046 132.607 128.375C123.834 120.703 115.06 102.213 106.286 90.6242C97.5122 79.0358 88.7383 74.3499 79.9645 83.915C71.1907 93.4801 62.4168 117.296 53.643 117.127C44.8692 116.958 36.0953 92.8027 27.3215 84.511C18.5477 76.2193 9.77383 83.7907 5.38692 87.5764Z" fill="url(#paint0_linear_9839_203)"/>
</g>
<path d="M633 132.994L625.978 145.21C618.956 157.426 604.911 181.859 590.867 183.448C576.822 185.036 562.778 163.781 548.733 158.92C534.689 154.058 520.644 165.592 506.6 172.154C492.556 178.716 478.511 180.307 464.467 181.2C450.422 182.093 436.378 182.287 422.333 185.925C408.289 189.563 394.244 196.644 380.2 185.915C366.156 175.186 352.111 146.647 338.067 131.536C324.022 116.425 309.978 114.743 295.933 126.633C281.889 138.523 267.844 163.984 253.8 171.042C239.756 178.1 225.711 166.754 211.667 167.927C197.622 169.101 183.578 182.794 169.533 174.309C155.489 165.824 141.444 135.161 127.4 132.492C113.356 129.823 99.3111 155.148 85.2667 166.432C71.2222 177.716 57.1778 174.959 43.1333 175.731C29.0889 176.503 15.0445 180.805 8.02223 182.955L0.999984 185.106" stroke="#F9BA33" stroke-width="4"/>
<path opacity="0.2" d="M625.978 145.21L633 132.994V270.353H1V185.106L8.02228 182.955C15.0445 180.805 29.0889 176.503 43.1334 175.731C57.1778 174.959 71.2222 177.716 85.2667 166.432C99.3112 155.148 113.356 129.823 127.4 132.492C141.444 135.161 155.489 165.824 169.533 174.309C183.578 182.794 197.622 169.101 211.667 167.927C225.711 166.754 239.756 178.1 253.8 171.042C267.844 163.984 281.889 138.523 295.933 126.633C309.978 114.743 324.022 116.425 338.067 131.536C352.111 146.647 366.156 175.186 380.2 185.915C394.244 196.644 408.289 189.563 422.333 185.925C436.378 182.287 450.422 182.093 464.467 181.2C478.511 180.307 492.556 178.716 506.6 172.154C520.644 165.592 534.689 154.059 548.733 158.92C562.778 163.781 576.822 185.036 590.867 183.448C604.911 181.859 618.956 157.427 625.978 145.21Z" fill="url(#paint1_linear_9839_203)"/>
<defs>
<linearGradient id="paint0_linear_9839_203" x1="316.858" y1="1" x2="316.858" y2="271" gradientUnits="userSpaceOnUse">
<stop stop-color="#4745A4"/>
<stop offset="1" stop-color="#4745A4" stop-opacity="0"/>
</linearGradient>
<linearGradient id="paint1_linear_9839_203" x1="317" y1="118.809" x2="317" y2="270.353" gradientUnits="userSpaceOnUse">
<stop stop-color="#F8CD70"/>
<stop offset="1" stop-color="#F8CD70" stop-opacity="0"/>
</linearGradient>
</defs>
</svg>
